<svg xmlns="http://www.w3.org/2000/svg" width="1280" height="1280" viewBox="0 0 1280 1280" role="img" aria-labelledby="title desc">
<title id="title">forkit mark</title>
<desc id="desc">Three organic petals surrounding one iridescent seam that divides into two branches.</desc>
<defs><linearGradient id="fork-seam" gradientUnits="userSpaceOnUse" x1="348" y1="237" x2="1150" y2="670"><stop offset="0" stop-color="#a53afd"/><stop offset=".30" stop-color="#6636fb"/><stop offset=".60" stop-color="#1284fc"/><stop offset=".86" stop-color="#00edfc"/><stop offset="1" stop-color="#46fafd"/></linearGradient></defs><g fill="#f2f3f5"><path d="M348 237 C360 151 583 71 727 80 C895 79 1049 135 1030 196 C1018 234 936 279 846 321 C773 355 736 395 702 414 C681 427 662 423 643 412 C602 389 540 381 475 352 C401 321 342 291 348 237 Z"/><path d="M307 249 C326 242 339 270 352 302 C384 381 420 435 465 489 C519 551 552 602 553 656 C556 717 519 779 474 838 L369 976 C341 1017 305 1011 273 990 C178 928 111 812 111 670 C108 532 167 373 263 283 C280 266 296 253 307 249 Z"/><path d="M373 994 C468 918 557 848 658 800 C750 756 833 736 907 743 C999 748 1105 781 1133 821 C1172 877 1046 979 938 1043 C816 1117 632 1118 470 1099 C397 1090 311 1046 373 994 Z"/></g><path fill="url(#fork-seam)" d="M348 237 C342 291 401 323 475 356 C543 387 608 399 650 429 C684 453 704 461 740 447 C797 423 842 416 920 396 C1001 375 1065 348 1105 310 C1076 365 1025 400 950 427 C868 457 807 475 773 511 C734 552 765 605 831 647 C908 696 1009 699 1090 729 C1135 746 1164 768 1180 792 C1105 751 1067 754 1006 746 C914 738 829 720 773 686 C704 644 683 582 656 540 C621 494 570 462 507 432 C439 399 392 352 368 309 C352 280 345 254 348 237 Z"/>
</svg>
